<?xml version="1.0" encoding="UTF-8"?>
<svg width="285px" height="303px" viewBox="0 0 285 303" version="1.1" xmlns="http://www.w3.org/2000/svg" xmlns:xlink="http://www.w3.org/1999/xlink">
    <!-- Generator: Sketch 57.1 (83088) - https://sketch.com -->
    <title>Artboard Copy</title>
    <desc>Created with Sketch.</desc>
    <g id="Artboard-Copy" stroke="none" stroke-width="1" fill="none" fill-rule="evenodd">
        <g id="bem-react-logo-2" transform="translate(2.000000, 0.000000)">
            <path d="M187.528135,228.804256 C193.746408,206.376373 197.375162,179.288312 197.363903,150.116283 C197.333307,72.7445735 171.707543,10.012361 140.126945,9.99995801 C123.179632,9.9933128 107.961373,28.05001 97.5015704,56.7420937 M92.4299734,71.1342355 C86.5419797,93.1680178 82.9890374,121.753899 82.999876,150.071395 C83.0306087,227.443105 108.656372,290.175317 140.236971,290.187735 C156.807485,290.194217 171.724977,272.931667 182.157635,245.343509" id="Shape" stroke="#FFFFFF" stroke-width="4" stroke-linecap="round" transform="translate(140.181890, 150.093846) scale(1, -1) rotate(-30.000000) translate(-140.181890, -150.093846) "></path>
            <path d="M187.528135,228.804256 C193.746408,206.376373 197.375162,179.288312 197.363903,150.116283 C197.333307,72.7445735 171.707543,10.012361 140.126945,9.99995801 C123.179632,9.9933128 107.961373,28.05001 97.5015704,56.7420937 M92.4299734,71.1342355 C86.5419797,93.1680178 82.9890374,121.753899 82.999876,150.071395 C83.0306087,227.443105 108.656372,290.175317 140.236971,290.187735 C156.807485,290.194217 171.724977,272.931667 182.157635,245.343509" id="Shape" stroke="#FFFFFF" stroke-width="4" stroke-linecap="round" transform="translate(140.181890, 150.093846) scale(1, -1) rotate(90.000000) translate(-140.181890, -150.093846) "></path>
            <path d="M187.528135,228.804256 C193.746408,206.376373 197.375162,179.288312 197.363903,150.116283 C197.333307,72.7445735 171.707543,10.012361 140.126945,9.99995801 C123.179632,9.9933128 107.961373,28.05001 97.5015704,56.7420937 M92.4299734,71.1342355 C86.5419797,93.1680178 82.9890374,121.753899 82.999876,150.071395 C83.0306087,227.443105 108.656372,290.175317 140.236971,290.187735 C156.807485,290.194217 171.724977,272.931667 182.157635,245.343509" id="Shape" stroke="#FFFFFF" stroke-width="4" stroke-linecap="round" transform="translate(140.181890, 150.093846) scale(1, -1) rotate(30.000000) translate(-140.181890, -150.093846) "></path>
            <path d="M152.227145,140.850115 L136.637121,140.850115 L136.637121,125 L120,125 L120,173 L152.227145,173 C157.578948,173 162,168.840747 162,163.669785 L162,150.180326 C161.883657,145.009364 157.578948,140.850115 152.227145,140.850115 Z" id="path4228" fill="#FFFFFF" fill-rule="nonzero"></path>
        </g>
    </g>
</svg>
