<svg xmlns="http://www.w3.org/2000/svg" viewBox="0 0 285 306"><g fill="none" fill-rule="evenodd"><path stroke="#182025" stroke-linecap="round" stroke-width="4" d="M222.54014594 108.6017539c-5.82875911 22.53225293-16.23019646 47.8055789-30.82596154 73.06366759-38.71235167 66.99056796-92.27102053 108.50537562-119.62682216 92.72581792-14.68012619-8.46790158-18.83117649-31.71458956-13.5435894-61.79256423m2.80393906-14.99975891c5.91773902-22.02581207 17.13374133-48.55838253 31.30187584-73.07663413 38.7124703-66.99050005 92.2711383-108.50530763 119.6269483-92.72576243 14.35372708 8.27964342 18.64137912 30.68819626 13.88224697 59.79657093"/><path stroke="#182025" stroke-linecap="round" stroke-width="4" d="M63.47148 105.747601c22.427883-6.218273 49.515944-9.847027 78.687973-9.835768 77.3717095.030596 140.103922 25.65636 140.11632499 57.236958.00664521 16.947313-18.05005199 32.165572-46.74213569 42.6253746m-14.3921418 5.071597c-22.0337823 5.8879937-50.6196635 9.440936-78.9371595 9.4300974-77.37171-.0307327-140.103922-25.656496-140.11634-57.237095-.006482-16.570514 17.256068-31.488006 44.844226-41.920664"/><path stroke="#182025" stroke-linecap="round" stroke-width="4" d="M143.82973594 61.2555089c16.59912389 16.31397993 33.28574754 37.9585519 47.86201146 63.22789959 38.65935783 67.02116396 47.83290147 134.16173562 20.48950283 149.96277592-14.67348098 8.47941142-36.88122848.45098244-60.2857251-19.16718963m-11.58820273-9.92816191c-16.11604328-16.13781837-33.48592217-39.11744653-47.63528366-63.64653673-38.6592397-67.02123275-47.8327837-134.16180363-20.4893917-149.96285743 14.34724508-8.29087058 35.89744712-.79980974 58.72647297 17.87590693"/><path fill="#000" fill-rule="nonzero" d="M154.227145 143.850115h-15.590024V128H122v48h32.227145C159.578948 176 164 171.840747 164 166.669785v-13.489459c-.116343-5.170962-4.421052-9.330211-9.772855-9.330211z"/></g></svg>
